<svg width="67" height="65" viewBox="0 0 67 65" fill="none" xmlns="http://www.w3.org/2000/svg">
<g clip-path="url(#clip0_290_8)">
<path d="M41.578 13.7133C33.698 13.708 25.478 15.484 17.1766 17.7867C16.1233 18 15.0926 18.688 14.5513 19.5413C14.0513 20.344 13.8686 21.1507 13.7126 22C12.906 26.516 13.0046 30.9533 13.1713 35.864C13.2073 36.9893 13.3793 38.328 13.9006 39.136C14.4526 39.9533 15.39 40.4733 16.514 40.6453C17.958 40.864 19.394 41.032 20.8326 41.1827L20.5153 50.0573C20.462 50.76 20.8113 51.3493 21.2393 51.688C21.6246 51.9787 22.0526 52.1093 22.4886 52.1413C23.3633 52.208 24.3953 51.828 24.906 50.86C27.146 46.5467 28.5513 44.6467 31.3486 41.78C38.6553 41.964 45.03 41.5573 52.2446 41.02C54.7966 40.9587 56.5513 38.8693 57.0153 37.2027C58.3953 32.8853 58.614 27.5573 58.7593 22.1667C58.822 20.0307 58.082 17.9373 56.77 16.828C55.5206 15.8173 54.0153 15.4533 52.63 15.0787C48.786 14.208 44.9433 13.74 41.578 13.7133ZM52.078 17.088C53.4633 17.464 54.6873 17.828 55.4513 18.4533C56.7393 19.8173 56.6966 20.7293 56.682 22.2027C56.5353 27.4267 56.286 32.5 55.1033 36.344C54.5926 37.776 53.7126 38.7973 52.0366 38.948C44.682 39.4947 38.302 39.9173 30.9113 39.7027C30.7679 39.6984 30.6252 39.7234 30.4917 39.7761C30.3583 39.8288 30.237 39.9082 30.1353 40.0093C27.03 43.1453 25.442 45.3293 23.0726 49.8853C23.0193 49.9893 22.8993 50.052 22.75 50.0627C22.6566 50.0573 22.614 49.9787 22.6086 49.912L22.926 40.2853C22.9271 40.0254 22.8337 39.7739 22.6632 39.5777C22.4928 39.3815 22.2568 39.2539 21.9993 39.2187C20.2735 39.0526 18.5525 38.8405 16.838 38.5827C16.098 38.4733 15.8273 38.2707 15.6246 37.9693C15.27 37.1253 15.2753 36.604 15.25 35.796C15.082 30.9213 15.0046 26.6667 15.7486 22.432C15.822 21.8027 16.0566 21.1613 16.306 20.6307C16.7193 19.984 17.3486 19.8907 17.9833 19.7133C26.098 17.4733 34.0366 15.7973 41.5153 15.792C45.182 15.9213 49.026 16.292 52.078 17.088ZM24.046 25.344C22.926 26.6827 23.0353 28.5 23.8993 29.7187C24.3526 30.3587 25.0566 30.8693 25.9113 30.9853C27.026 31.0787 27.734 30.6253 28.494 30.1093C29.874 28.912 30.014 26.8173 28.9633 25.3027C28.7092 24.9323 28.3728 24.6256 27.9805 24.4068C27.5882 24.188 27.1507 24.0629 26.702 24.0413C25.5046 24.052 24.6926 24.584 24.046 25.344ZM36.1393 24.2507C35.026 24.2867 34.1246 25.0573 33.5726 25.8907C32.946 26.8373 32.578 28.0307 33.0873 29.2027C34.0673 31.448 37.4526 31.4213 38.802 29.136C39.4206 28.0827 39.2646 26.8853 38.802 26.0213C38.338 25.1507 37.6393 24.4427 36.6246 24.2813C36.4642 24.2558 36.3017 24.2456 36.1393 24.2507ZM45.958 24.4587C45.6086 24.4498 45.2596 24.4883 44.9206 24.5733C43.582 24.9333 42.442 26.312 42.614 28.0787C42.702 28.9693 43.1086 29.8387 43.8486 30.432C44.5873 31.032 45.6553 31.2973 46.786 31.068C48.082 30.8013 48.89 29.7547 49.1553 28.7453C49.426 27.7347 49.3593 26.708 48.734 25.8747C48.41 25.4425 47.9913 25.0902 47.5102 24.8448C47.029 24.5993 46.4981 24.4673 45.958 24.4587ZM26.6126 26.1147C26.858 26.12 27.0553 26.1973 27.258 26.4893C27.7113 27.1453 27.586 28.136 27.1286 28.536C26.6753 28.932 26.3886 28.9693 26.186 28.9427C25.9873 28.912 25.7846 28.776 25.602 28.5213C25.258 28.0307 25.154 27.24 25.6126 26.672C25.8526 26.3493 26.3006 26.1453 26.6126 26.1147ZM36.2846 26.344C36.3206 26.3493 36.758 26.604 36.9673 26.9947C37.1753 27.3853 37.2113 27.7453 37.014 28.0787C36.4246 29.0787 35.174 28.8067 34.9873 28.3747C34.914 28.208 34.9673 27.5413 35.31 27.0267C35.654 26.5053 36.0806 26.312 36.2833 26.344H36.2846ZM47.0606 27.104C47.1233 27.1933 47.2793 27.76 47.1593 28.208C47.0393 28.6613 46.842 28.9373 46.362 29.036C45.7486 29.1667 45.4046 29.036 45.1433 28.828C44.8886 28.62 44.7113 28.2653 44.6753 27.8853C44.582 26.948 44.9193 26.7293 45.4566 26.588C46.0766 26.432 46.7793 26.7027 47.0606 27.104ZM71.822 17.912C71.8371 17.6479 71.9399 17.3965 72.114 17.1973C72.2008 17.0935 72.3102 17.0109 72.4338 16.9559C72.5575 16.9009 72.6921 16.8749 72.8273 16.88H79.7913C80.026 16.88 80.2713 16.9787 80.5206 17.172C80.6372 17.2568 80.7319 17.3681 80.7968 17.4968C80.8617 17.6255 80.8951 17.7679 80.894 17.912V29.0267H92.5473V17.912C92.5463 17.7741 92.5732 17.6375 92.6264 17.5102C92.6795 17.383 92.7578 17.2678 92.8565 17.1715C92.9552 17.0753 93.0724 17 93.201 16.9501C93.3295 16.9002 93.4668 16.8768 93.6046 16.8813H100.473C100.786 16.8813 101.057 16.9587 101.291 17.1147C101.526 17.2707 101.645 17.5213 101.645 17.864V50.6667C101.645 51.0107 101.541 51.2667 101.338 51.4373C101.135 51.6093 100.869 51.6973 100.541 51.6973H93.6033C93.3248 51.7083 93.0521 51.6157 92.838 51.4373C92.6446 51.2653 92.546 51.0107 92.546 50.6667V37.3493H80.8953V50.6667C80.8953 50.9947 80.7913 51.2507 80.578 51.4267C80.3686 51.6093 80.0833 51.6973 79.7233 51.6973H72.8273C72.1713 51.6973 71.838 51.3907 71.822 50.7813V17.912ZM135.969 51.2973C135.784 51.4591 135.562 51.5719 135.322 51.6253C135.11 51.671 134.894 51.6951 134.677 51.6973H131.135C130.854 51.6973 130.614 51.6453 130.411 51.5467C130.213 51.4472 130.037 51.3073 129.895 51.136C129.75 50.9572 129.631 50.7588 129.541 50.5467C129.446 50.3269 129.368 50.1005 129.306 49.8693L128.582 46.8693C128.349 47.3547 128.005 47.9013 127.562 48.5213C127.078 49.1742 126.506 49.7575 125.863 50.2547C125.115 50.8285 124.285 51.2869 123.401 51.6147C122.447 51.984 121.354 52.1667 120.119 52.1667C118.338 52.1667 116.719 51.8227 115.266 51.136C113.842 50.4706 112.574 49.5119 111.546 48.3227C110.526 47.136 109.733 45.7453 109.171 44.1627C108.601 42.5301 108.316 40.8118 108.327 39.0827V23.7293C108.327 23.136 108.453 22.6827 108.714 22.38C108.967 22.0733 109.381 21.9213 109.942 21.9213H115.359C116.03 21.9213 116.489 22.036 116.745 22.26C116.994 22.4893 117.118 22.9267 117.118 23.588V38.8493C117.118 39.5213 117.27 40.156 117.571 40.76C118.19 41.972 119.22 42.9234 120.478 43.4427C121.114 43.7093 121.759 43.8427 122.417 43.8427C122.978 43.8427 123.562 43.7093 124.161 43.4427C124.765 43.176 125.317 42.8227 125.827 42.38C126.333 41.932 126.754 41.4067 127.083 40.8067C127.411 40.2027 127.573 39.5667 127.573 38.896V23.656C127.573 23.3907 127.625 23.1253 127.723 22.86C127.811 22.6151 127.971 22.4026 128.182 22.2507C128.385 22.1253 128.578 22.0373 128.755 21.9893C128.937 21.9427 129.145 21.9227 129.379 21.9227H134.677C135.349 21.9227 135.833 22.0827 136.13 22.412C136.426 22.74 136.578 23.1827 136.578 23.7293V49.964C136.578 50.26 136.51 50.5307 136.374 50.7813C136.251 51.0247 136.061 51.2285 135.827 51.3693L135.969 51.2973ZM163.187 48.0627C162.765 48.484 162.297 48.9373 161.791 49.4227C161.281 49.9067 160.723 50.36 160.114 50.7813C159.505 51.2027 158.847 51.552 158.145 51.828C157.418 52.1031 156.646 52.241 155.869 52.2347C153.745 52.2347 151.786 51.8387 149.999 51.0413C148.253 50.2759 146.681 49.163 145.379 47.7707C144.087 46.3853 143.083 44.7547 142.353 42.88C141.63 41.0053 141.265 38.9893 141.265 36.8333C141.265 34.6613 141.63 32.64 142.354 30.7707C143.082 28.9067 144.087 27.2813 145.381 25.896C146.68 24.5038 148.252 23.3941 149.999 22.636C151.786 21.8493 153.745 21.4533 155.869 21.4533C156.671 21.4439 157.469 21.5706 158.229 21.828C158.914 22.0649 159.566 22.387 160.171 22.7867C160.759 23.1827 161.297 23.62 161.791 24.1147C162.281 24.604 162.75 25.088 163.187 25.5573V14.8373C163.187 14.3387 163.338 13.9173 163.641 13.5733C163.947 13.2293 164.406 13.0573 165.014 13.0573H170.291C170.494 13.0573 170.707 13.104 170.931 13.188C171.161 13.276 171.369 13.396 171.557 13.552C171.743 13.708 171.895 13.896 172.01 14.1147C172.13 14.3333 172.187 14.5733 172.187 14.8387V49.8907C172.187 51.0933 171.557 51.6973 170.291 51.6973H165.691C165.379 51.6973 165.139 51.6573 164.969 51.5773C164.798 51.5033 164.649 51.3872 164.535 51.24C164.402 51.0692 164.295 50.8796 164.218 50.6773C164.125 50.4533 164.005 50.188 163.863 49.8907L163.187 48.0627ZM149.702 36.8333C149.702 37.864 149.863 38.828 150.187 39.7293C150.484 40.5903 150.95 41.3836 151.557 42.0627C152.15 42.7187 152.863 43.24 153.703 43.62C154.535 44.0053 155.463 44.1933 156.478 44.1933C157.478 44.1933 158.421 44.016 159.306 43.656C160.186 43.296 160.958 42.8027 161.613 42.1667C162.274 41.5239 162.811 40.7645 163.197 39.9267C163.596 39.0568 163.822 38.1176 163.863 37.1613V36.8333C163.863 35.8333 163.677 34.88 163.302 33.9733C162.938 33.0855 162.41 32.2743 161.745 31.5827C161.076 30.8927 160.28 30.3393 159.401 29.9533C158.48 29.5486 157.484 29.3441 156.478 29.3533C155.463 29.3533 154.535 29.5533 153.702 29.9533C152.88 30.3394 152.149 30.8951 151.557 31.584C150.953 32.2868 150.489 33.0975 150.187 33.9733C149.862 34.8916 149.698 35.8592 149.702 36.8333ZM199.406 48.0627C198.983 48.484 198.521 48.9373 198.01 49.4227C197.503 49.9067 196.947 50.36 196.338 50.7813C195.729 51.2027 195.071 51.552 194.365 51.828C193.639 52.1033 192.869 52.2412 192.093 52.2347C189.969 52.2347 188.01 51.8387 186.218 51.0413C184.475 50.2743 182.905 49.1616 181.605 47.7707C180.311 46.3853 179.302 44.7547 178.578 42.88C177.849 41.0053 177.489 38.9893 177.489 36.8333C177.489 34.6613 177.849 32.64 178.578 30.7707C179.265 28.9669 180.293 27.312 181.605 25.896C182.903 24.5051 184.473 23.3955 186.218 22.636C188.01 21.8493 189.969 21.4533 192.093 21.4533C192.953 21.4533 193.739 21.5787 194.447 21.828C195.134 22.065 195.788 22.3871 196.394 22.7867C196.978 23.1827 197.521 23.62 198.01 24.1147C198.503 24.604 198.969 25.088 199.406 25.5573V14.8373C199.406 14.3387 199.562 13.9173 199.863 13.5733C200.17 13.2293 200.623 13.0573 201.234 13.0573H206.51C206.713 13.0573 206.926 13.104 207.155 13.188C207.379 13.276 207.587 13.396 207.775 13.552C207.962 13.708 208.119 13.896 208.234 14.1147C208.354 14.3333 208.411 14.5733 208.411 14.8387V49.8907C208.411 51.0933 207.775 51.6973 206.51 51.6973H201.915C201.603 51.6973 201.359 51.6573 201.187 51.5773C201.018 51.5019 200.869 51.3861 200.754 51.24C200.623 51.0679 200.516 50.8786 200.437 50.6773C200.343 50.4533 200.229 50.188 200.087 49.8907L199.406 48.0627ZM185.926 36.8333C185.926 37.864 186.087 38.828 186.406 39.7293C186.706 40.5896 187.173 41.3824 187.779 42.0627C188.374 42.7187 189.087 43.24 189.921 43.62C190.761 44.0053 191.687 44.1933 192.702 44.1933C193.669 44.2005 194.629 44.018 195.526 43.656C196.386 43.3139 197.171 42.8081 197.838 42.1667C198.499 41.5238 199.035 40.7644 199.421 39.9267C199.82 39.0568 200.046 38.1176 200.087 37.1613V36.8333C200.088 34.8734 199.326 32.9902 197.962 31.5827C197.296 30.8905 196.5 30.3368 195.619 29.9533C194.701 29.5482 193.706 29.3436 192.702 29.3533C191.687 29.3533 190.759 29.5533 189.921 29.9533C189.101 30.3409 188.372 30.8965 187.781 31.584C187.178 32.2878 186.711 33.0982 186.406 33.9733C186.085 34.8925 185.923 35.8597 185.926 36.8333ZM214.646 14.864C214.646 14.364 214.77 13.9427 215.019 13.5987C215.27 13.2547 215.702 13.084 216.313 13.084H222.057C222.213 13.084 222.374 13.124 222.546 13.2133C222.719 13.2973 222.879 13.416 223.026 13.5733C223.177 13.7293 223.302 13.9173 223.399 14.136C223.505 14.3547 223.557 14.5987 223.557 14.864V49.8907C223.557 50.484 223.385 50.9373 223.051 51.24C222.713 51.5467 222.281 51.6973 221.75 51.6973H216.311C215.702 51.6973 215.271 51.5467 215.021 51.24C214.77 50.9373 214.645 50.484 214.645 49.8907L214.646 14.864ZM254.125 48.136C252.766 49.3915 251.195 50.3947 249.485 51.0987C247.765 51.812 245.942 52.1667 244.021 52.1667C241.879 52.1667 239.859 51.776 237.953 50.9947C236.087 50.2426 234.382 49.1395 232.931 47.7453C231.486 46.353 230.324 44.6941 229.51 42.86C228.666 40.984 228.243 38.9427 228.243 36.74C228.243 35.364 228.411 34.0307 228.75 32.74C229.083 31.4533 229.562 30.2453 230.177 29.12C230.796 27.9952 231.552 26.951 232.426 26.0107C234.203 24.1136 236.46 22.7332 238.958 22.016C240.238 21.64 241.593 21.4533 243.015 21.4533C244.311 21.4533 245.567 21.6253 246.791 21.9693C249.196 22.6429 251.39 23.9171 253.166 25.672C254.046 26.5332 254.817 27.4986 255.463 28.5467C256.103 29.5827 256.598 30.6933 256.953 31.8747C257.302 33.052 257.478 34.2707 257.478 35.5213C257.478 36.3333 257.469 36.9947 257.442 37.5107C257.421 38.0267 257.302 38.4373 257.082 38.7453C256.863 39.0467 256.499 39.26 255.989 39.3747C255.483 39.4947 254.734 39.552 253.749 39.552H236.869C237.026 40.552 237.343 41.3907 237.822 42.0627C238.297 42.7347 238.849 43.2707 239.473 43.6667C240.099 44.0667 240.766 44.3493 241.469 44.52C242.119 44.6864 242.787 44.7741 243.458 44.7813C244.021 44.7813 244.598 44.724 245.191 44.604C245.777 44.4923 246.353 44.3358 246.915 44.136C247.443 43.9542 247.953 43.7276 248.442 43.4587C248.901 43.1973 249.275 42.9267 249.557 42.6453C249.806 42.4427 250.021 42.292 250.197 42.192C250.372 42.0896 250.572 42.0358 250.775 42.036C250.978 42.036 251.187 42.1093 251.395 42.2493C251.609 42.3907 251.843 42.5933 252.109 42.86L254.593 45.672C254.766 45.8747 254.874 46.0573 254.921 46.224C254.969 46.3853 254.994 46.5573 254.994 46.7293C255 47.0197 254.908 47.3036 254.734 47.536C254.561 47.76 254.359 47.9627 254.125 48.136ZM242.849 28.604C242.239 28.604 241.65 28.724 241.078 28.9693C240.51 29.2093 239.973 29.5307 239.473 29.9373C238.972 30.3467 238.52 30.812 238.125 31.324C237.745 31.8117 237.419 32.3387 237.151 32.896H249.135C248.82 32.3088 248.463 31.7448 248.067 31.208C247.69 30.6991 247.248 30.2407 246.754 29.844C246.247 29.4474 245.677 29.139 245.067 28.932C244.431 28.7133 243.693 28.604 242.849 28.604Z" fill="#FF4242"/>
</g>
<defs>
<clipPath id="clip0_290_8">
<rect width="67" height="65" fill="white"/>
</clipPath>
</defs>
</svg>
