<svg width="251" height="65" viewBox="0 0 251 65" fill="none" xmlns="http://www.w3.org/2000/svg">
<path d="M28.578 13.7133C20.698 13.708 12.478 15.484 4.17664 17.7867C3.12331 18 2.09264 18.688 1.55131 19.5413C1.05131 20.344 0.868639 21.1507 0.712639 22C-0.0940278 26.516 0.00463869 30.9533 0.171305 35.864C0.207305 36.9893 0.379305 38.328 0.900639 39.136C1.45264 39.9533 2.38997 40.4733 3.51397 40.6453C4.95797 40.864 6.39397 41.032 7.83264 41.1827L7.51531 50.0573C7.46197 50.76 7.81131 51.3493 8.23931 51.688C8.62464 51.9787 9.05264 52.1093 9.48864 52.1413C10.3633 52.208 11.3953 51.828 11.906 50.86C14.146 46.5467 15.5513 44.6467 18.3486 41.78C25.6553 41.964 32.03 41.5573 39.2446 41.02C41.7966 40.9587 43.5513 38.8693 44.0153 37.2027C45.3953 32.8853 45.614 27.5573 45.7593 22.1667C45.822 20.0307 45.082 17.9373 43.77 16.828C42.5206 15.8173 41.0153 15.4533 39.63 15.0787C35.786 14.208 31.9433 13.74 28.578 13.7133ZM39.078 17.088C40.4633 17.464 41.6873 17.828 42.4513 18.4533C43.7393 19.8173 43.6966 20.7293 43.682 22.2027C43.5353 27.4267 43.286 32.5 42.1033 36.344C41.5926 37.776 40.7126 38.7973 39.0366 38.948C31.682 39.4947 25.302 39.9173 17.9113 39.7027C17.7679 39.6984 17.6252 39.7234 17.4917 39.7761C17.3583 39.8288 17.237 39.9082 17.1353 40.0093C14.03 43.1453 12.442 45.3293 10.0726 49.8853C10.0193 49.9893 9.89931 50.052 9.74997 50.0627C9.65664 50.0573 9.61397 49.9787 9.60864 49.912L9.92597 40.2853C9.92708 40.0254 9.83371 39.7739 9.66325 39.5777C9.49278 39.3815 9.25683 39.2539 8.99931 39.2187C7.27352 39.0526 5.55246 38.8405 3.83797 38.5827C3.09797 38.4733 2.82731 38.2707 2.62464 37.9693C2.26997 37.1253 2.27531 36.604 2.24997 35.796C2.08197 30.9213 2.00464 26.6667 2.74864 22.432C2.82197 21.8027 3.05664 21.1613 3.30597 20.6307C3.71931 19.984 4.34864 19.8907 4.98331 19.7133C13.098 17.4733 21.0366 15.7973 28.5153 15.792C32.182 15.9213 36.026 16.292 39.078 17.088ZM11.046 25.344C9.92597 26.6827 10.0353 28.5 10.8993 29.7187C11.3526 30.3587 12.0566 30.8693 12.9113 30.9853C14.026 31.0787 14.734 30.6253 15.494 30.1093C16.874 28.912 17.014 26.8173 15.9633 25.3027C15.7092 24.9323 15.3728 24.6257 14.9805 24.4068C14.5882 24.188 14.1507 24.0629 13.702 24.0413C12.5046 24.052 11.6926 24.584 11.046 25.344ZM23.1393 24.2507C22.026 24.2867 21.1246 25.0573 20.5726 25.8907C19.946 26.8373 19.578 28.0307 20.0873 29.2027C21.0673 31.448 24.4526 31.4213 25.802 29.136C26.4206 28.0827 26.2646 26.8853 25.802 26.0213C25.338 25.1507 24.6393 24.4427 23.6246 24.2813C23.4642 24.2558 23.3017 24.2456 23.1393 24.2507ZM32.958 24.4587C32.6086 24.4498 32.2596 24.4883 31.9206 24.5733C30.582 24.9333 29.442 26.312 29.614 28.0787C29.702 28.9693 30.1086 29.8387 30.8486 30.432C31.5873 31.032 32.6553 31.2973 33.786 31.068C35.082 30.8013 35.89 29.7547 36.1553 28.7453C36.426 27.7347 36.3593 26.708 35.734 25.8747C35.41 25.4425 34.9913 25.0902 34.5102 24.8448C34.029 24.5993 33.4981 24.4673 32.958 24.4587ZM13.6126 26.1147C13.858 26.12 14.0553 26.1973 14.258 26.4893C14.7113 27.1453 14.586 28.136 14.1286 28.536C13.6753 28.932 13.3886 28.9693 13.186 28.9427C12.9873 28.912 12.7846 28.776 12.602 28.5213C12.258 28.0307 12.154 27.24 12.6126 26.672C12.8526 26.3493 13.3006 26.1453 13.6126 26.1147ZM23.2846 26.344C23.3206 26.3493 23.758 26.604 23.9673 26.9947C24.1753 27.3853 24.2113 27.7453 24.014 28.0787C23.4246 29.0787 22.174 28.8067 21.9873 28.3747C21.914 28.208 21.9673 27.5413 22.31 27.0267C22.654 26.5053 23.0806 26.312 23.2833 26.344H23.2846ZM34.0606 27.104C34.1233 27.1933 34.2793 27.76 34.1593 28.208C34.0393 28.6613 33.842 28.9373 33.362 29.036C32.7486 29.1667 32.4046 29.036 32.1433 28.828C31.8886 28.62 31.7113 28.2653 31.6753 27.8853C31.582 26.948 31.9193 26.7293 32.4566 26.588C33.0766 26.432 33.7793 26.7027 34.0606 27.104ZM58.822 17.912C58.8371 17.6479 58.9399 17.3965 59.114 17.1973C59.2008 17.0935 59.3102 17.0109 59.4338 16.9559C59.5575 16.9009 59.6921 16.875 59.8273 16.88H66.7913C67.026 16.88 67.2713 16.9787 67.5206 17.172C67.6372 17.2568 67.7319 17.3681 67.7968 17.4968C67.8617 17.6255 67.8951 17.7679 67.894 17.912V29.0267H79.5473V17.912C79.5463 17.7741 79.5732 17.6375 79.6264 17.5102C79.6795 17.383 79.7578 17.2678 79.8565 17.1715C79.9552 17.0753 80.0724 17 80.201 16.9501C80.3295 16.9002 80.4668 16.8768 80.6046 16.8813H87.4726C87.786 16.8813 88.0566 16.9587 88.2913 17.1147C88.526 17.2707 88.6446 17.5213 88.6446 17.864V50.6667C88.6446 51.0107 88.5406 51.2667 88.338 51.4373C88.1353 51.6093 87.8686 51.6973 87.5406 51.6973H80.6033C80.3248 51.7083 80.0521 51.6157 79.838 51.4373C79.6446 51.2653 79.546 51.0107 79.546 50.6667V37.3493H67.8953V50.6667C67.8953 50.9947 67.7913 51.2507 67.578 51.4267C67.3686 51.6093 67.0833 51.6973 66.7233 51.6973H59.8273C59.1713 51.6973 58.838 51.3907 58.822 50.7813V17.912ZM122.969 51.2973C122.784 51.4591 122.562 51.5719 122.322 51.6253C122.11 51.671 121.894 51.6951 121.677 51.6973H118.135C117.854 51.6973 117.614 51.6453 117.411 51.5467C117.213 51.4472 117.037 51.3073 116.895 51.136C116.75 50.9572 116.631 50.7588 116.541 50.5467C116.446 50.3269 116.368 50.1005 116.306 49.8693L115.582 46.8693C115.349 47.3547 115.005 47.9013 114.562 48.5213C114.078 49.1742 113.506 49.7575 112.863 50.2547C112.115 50.8285 111.285 51.2869 110.401 51.6147C109.447 51.984 108.354 52.1667 107.119 52.1667C105.338 52.1667 103.719 51.8227 102.266 51.136C100.842 50.4706 99.5741 49.5119 98.546 48.3227C97.526 47.136 96.7326 45.7453 96.1713 44.1627C95.6012 42.5301 95.3158 40.8118 95.3273 39.0827V23.7293C95.3273 23.136 95.4527 22.6827 95.714 22.38C95.9673 22.0733 96.3806 21.9213 96.942 21.9213H102.359C103.03 21.9213 103.489 22.036 103.745 22.26C103.994 22.4893 104.118 22.9267 104.118 23.588V38.8493C104.118 39.5213 104.27 40.156 104.571 40.76C105.19 41.972 106.22 42.9234 107.478 43.4427C108.114 43.7093 108.759 43.8427 109.417 43.8427C109.978 43.8427 110.562 43.7093 111.161 43.4427C111.765 43.176 112.317 42.8227 112.827 42.38C113.333 41.932 113.754 41.4067 114.083 40.8067C114.411 40.2027 114.573 39.5667 114.573 38.896V23.656C114.573 23.3907 114.625 23.1253 114.723 22.86C114.811 22.6151 114.971 22.4026 115.182 22.2507C115.385 22.1253 115.578 22.0373 115.755 21.9893C115.937 21.9427 116.145 21.9227 116.379 21.9227H121.677C122.349 21.9227 122.833 22.0827 123.13 22.412C123.426 22.74 123.578 23.1827 123.578 23.7293V49.964C123.578 50.26 123.51 50.5307 123.374 50.7813C123.251 51.0247 123.061 51.2285 122.827 51.3693L122.969 51.2973ZM150.187 48.0627C149.765 48.484 149.297 48.9373 148.791 49.4227C148.281 49.9067 147.723 50.36 147.114 50.7813C146.505 51.2027 145.847 51.552 145.145 51.828C144.418 52.1031 143.646 52.241 142.869 52.2347C140.745 52.2347 138.786 51.8387 136.999 51.0413C135.253 50.2759 133.681 49.163 132.379 47.7707C131.087 46.3853 130.083 44.7547 129.353 42.88C128.63 41.0053 128.265 38.9893 128.265 36.8333C128.265 34.6613 128.63 32.64 129.354 30.7707C130.082 28.9067 131.087 27.2813 132.381 25.896C133.68 24.5038 135.252 23.3941 136.999 22.636C138.786 21.8493 140.745 21.4533 142.869 21.4533C143.671 21.4439 144.469 21.5706 145.229 21.828C145.914 22.0649 146.566 22.387 147.171 22.7867C147.759 23.1827 148.297 23.62 148.791 24.1147C149.281 24.604 149.75 25.088 150.187 25.5573V14.8373C150.187 14.3387 150.338 13.9173 150.641 13.5733C150.947 13.2293 151.406 13.0573 152.014 13.0573H157.291C157.494 13.0573 157.707 13.104 157.931 13.188C158.161 13.276 158.369 13.396 158.557 13.552C158.743 13.708 158.895 13.896 159.01 14.1147C159.13 14.3333 159.187 14.5733 159.187 14.8387V49.8907C159.187 51.0933 158.557 51.6973 157.291 51.6973H152.691C152.379 51.6973 152.139 51.6573 151.969 51.5773C151.798 51.5033 151.649 51.3872 151.535 51.24C151.402 51.0692 151.295 50.8796 151.218 50.6773C151.125 50.4533 151.005 50.188 150.863 49.8907L150.187 48.0627ZM136.702 36.8333C136.702 37.864 136.863 38.828 137.187 39.7293C137.484 40.5903 137.95 41.3836 138.557 42.0627C139.15 42.7187 139.863 43.24 140.703 43.62C141.535 44.0053 142.463 44.1933 143.478 44.1933C144.478 44.1933 145.421 44.016 146.306 43.656C147.186 43.296 147.958 42.8027 148.613 42.1667C149.274 41.5239 149.811 40.7645 150.197 39.9267C150.596 39.0568 150.822 38.1176 150.863 37.1613V36.8333C150.863 35.8333 150.677 34.88 150.302 33.9733C149.938 33.0855 149.41 32.2743 148.745 31.5827C148.076 30.8927 147.28 30.3393 146.401 29.9533C145.48 29.5486 144.484 29.3441 143.478 29.3533C142.463 29.3533 141.535 29.5533 140.702 29.9533C139.88 30.3394 139.149 30.8952 138.557 31.584C137.953 32.2868 137.489 33.0975 137.187 33.9733C136.862 34.8916 136.698 35.8592 136.702 36.8333ZM186.406 48.0627C185.983 48.484 185.521 48.9373 185.01 49.4227C184.503 49.9067 183.947 50.36 183.338 50.7813C182.729 51.2027 182.071 51.552 181.365 51.828C180.639 52.1033 179.869 52.2412 179.093 52.2347C176.969 52.2347 175.01 51.8387 173.218 51.0413C171.475 50.2743 169.905 49.1616 168.605 47.7707C167.311 46.3853 166.302 44.7547 165.578 42.88C164.849 41.0053 164.489 38.9893 164.489 36.8333C164.489 34.6613 164.849 32.64 165.578 30.7707C166.265 28.9669 167.293 27.312 168.605 25.896C169.903 24.5051 171.473 23.3955 173.218 22.636C175.01 21.8493 176.969 21.4533 179.093 21.4533C179.953 21.4533 180.739 21.5787 181.447 21.828C182.134 22.065 182.788 22.3871 183.394 22.7867C183.978 23.1827 184.521 23.62 185.01 24.1147C185.503 24.604 185.969 25.088 186.406 25.5573V14.8373C186.406 14.3387 186.562 13.9173 186.863 13.5733C187.17 13.2293 187.623 13.0573 188.234 13.0573H193.51C193.713 13.0573 193.926 13.104 194.155 13.188C194.379 13.276 194.587 13.396 194.775 13.552C194.962 13.708 195.119 13.896 195.234 14.1147C195.354 14.3333 195.411 14.5733 195.411 14.8387V49.8907C195.411 51.0933 194.775 51.6973 193.51 51.6973H188.915C188.603 51.6973 188.359 51.6573 188.187 51.5773C188.018 51.5019 187.869 51.3861 187.754 51.24C187.623 51.0679 187.516 50.8786 187.437 50.6773C187.343 50.4533 187.229 50.188 187.087 49.8907L186.406 48.0627ZM172.926 36.8333C172.926 37.864 173.087 38.828 173.406 39.7293C173.706 40.5896 174.173 41.3824 174.779 42.0627C175.374 42.7187 176.087 43.24 176.921 43.62C177.761 44.0053 178.687 44.1933 179.702 44.1933C180.669 44.2005 181.629 44.018 182.526 43.656C183.386 43.3139 184.171 42.8081 184.838 42.1667C185.499 41.5238 186.035 40.7644 186.421 39.9267C186.82 39.0568 187.046 38.1176 187.087 37.1613V36.8333C187.088 34.8734 186.326 32.9902 184.962 31.5827C184.296 30.8905 183.5 30.3368 182.619 29.9533C181.701 29.5482 180.706 29.3436 179.702 29.3533C178.687 29.3533 177.759 29.5533 176.921 29.9533C176.101 30.3409 175.372 30.8965 174.781 31.584C174.178 32.2878 173.711 33.0982 173.406 33.9733C173.085 34.8925 172.923 35.8597 172.926 36.8333ZM201.646 14.864C201.646 14.364 201.77 13.9427 202.019 13.5987C202.27 13.2547 202.702 13.084 203.313 13.084H209.057C209.213 13.084 209.374 13.124 209.546 13.2133C209.719 13.2973 209.879 13.416 210.026 13.5733C210.177 13.7293 210.302 13.9173 210.399 14.136C210.505 14.3547 210.557 14.5987 210.557 14.864V49.8907C210.557 50.484 210.385 50.9373 210.051 51.24C209.713 51.5467 209.281 51.6973 208.75 51.6973H203.311C202.702 51.6973 202.271 51.5467 202.021 51.24C201.77 50.9373 201.645 50.484 201.645 49.8907L201.646 14.864ZM241.125 48.136C239.766 49.3915 238.195 50.3947 236.485 51.0987C234.765 51.812 232.942 52.1667 231.021 52.1667C228.879 52.1667 226.859 51.776 224.953 50.9947C223.087 50.2426 221.382 49.1395 219.931 47.7453C218.486 46.353 217.324 44.6941 216.51 42.86C215.666 40.984 215.243 38.9427 215.243 36.74C215.243 35.364 215.411 34.0307 215.75 32.74C216.083 31.4533 216.562 30.2453 217.177 29.12C217.796 27.9952 218.552 26.951 219.426 26.0107C221.203 24.1136 223.46 22.7332 225.958 22.016C227.238 21.64 228.593 21.4533 230.015 21.4533C231.311 21.4533 232.567 21.6253 233.791 21.9693C236.196 22.6429 238.39 23.9171 240.166 25.672C241.046 26.5332 241.817 27.4986 242.463 28.5467C243.103 29.5827 243.598 30.6933 243.953 31.8747C244.302 33.052 244.478 34.2707 244.478 35.5213C244.478 36.3333 244.469 36.9947 244.442 37.5107C244.421 38.0267 244.302 38.4373 244.082 38.7453C243.863 39.0467 243.499 39.26 242.989 39.3747C242.483 39.4947 241.734 39.552 240.749 39.552H223.869C224.026 40.552 224.343 41.3907 224.822 42.0627C225.297 42.7347 225.849 43.2707 226.473 43.6667C227.099 44.0667 227.766 44.3493 228.469 44.52C229.119 44.6864 229.787 44.7741 230.458 44.7813C231.021 44.7813 231.598 44.724 232.191 44.604C232.777 44.4923 233.353 44.3358 233.915 44.136C234.443 43.9542 234.953 43.7276 235.442 43.4587C235.901 43.1973 236.275 42.9267 236.557 42.6453C236.806 42.4427 237.021 42.292 237.197 42.192C237.372 42.0896 237.572 42.0358 237.775 42.036C237.978 42.036 238.187 42.1093 238.395 42.2493C238.609 42.3907 238.843 42.5933 239.109 42.86L241.593 45.672C241.766 45.8747 241.874 46.0573 241.921 46.224C241.969 46.3853 241.994 46.5573 241.994 46.7293C242 47.0197 241.908 47.3036 241.734 47.536C241.561 47.76 241.359 47.9627 241.125 48.136ZM229.849 28.604C229.239 28.604 228.65 28.724 228.078 28.9693C227.51 29.2093 226.973 29.5307 226.473 29.9373C225.972 30.3467 225.52 30.812 225.125 31.324C224.745 31.8117 224.419 32.3387 224.151 32.896H236.135C235.82 32.3088 235.463 31.7448 235.067 31.208C234.69 30.6991 234.248 30.2407 233.754 29.844C233.247 29.4474 232.677 29.139 232.067 28.932C231.431 28.7133 230.693 28.604 229.849 28.604Z" fill="white"/>
</svg>
